<?xml version="1.0" standalone="no"?>
<!DOCTYPE svg PUBLIC "-//W3C//DTD SVG 20010904//EN"
 "http://www.w3.org/TR/2001/REC-SVG-20010904/DTD/svg10.dtd">
<svg version="1.0" xmlns="http://www.w3.org/2000/svg"
 width="174.000000pt" height="174.000000pt" viewBox="0 0 174.000000 174.000000"
 preserveAspectRatio="xMidYMid meet">

<g transform="translate(0.000000,174.000000) scale(0.100000,-0.100000)"
fill="#000000" stroke="none">
<path d="M74 1206 c-21 -33 -15 -65 17 -88 20 -15 30 -17 52 -9 48 18 55 85
13 113 -24 16 -66 8 -82 -16z"/>
<path d="M261 1221 c-7 -5 -17 -30 -22 -57 -11 -62 -53 -104 -104 -104 -69 0
-100 -69 -49 -109 34 -27 50 -26 79 4 17 16 25 35 25 59 0 51 34 86 90 93 25
3 53 12 63 21 21 19 22 65 1 86 -17 17 -61 21 -83 7z"/>
<path d="M426 1208 c-20 -28 -20 -48 0 -76 23 -34 83 -27 104 11 13 24 13 30
0 55 -21 37 -81 44 -104 10z"/>
<path d="M610 1210 c-20 -20 -37 -67 -28 -76 3 -3 51 -3 108 -2 l102 3 -39 47
c-34 44 -42 48 -80 48 -30 0 -49 -6 -63 -20z"/>
<path d="M779 1213 c5 -10 25 -33 43 -51 l34 -32 390 2 389 3 3 24 c2 12 1 34
-2 47 l-6 24 -431 0 c-406 0 -429 -1 -420 -17z"/>
<path d="M262 1044 c-14 -10 -22 -26 -22 -44 0 -68 -51 -120 -117 -120 -56 0
-82 -61 -43 -100 45 -45 110 -10 110 59 0 50 43 91 96 91 42 0 74 30 74 69 0
31 -30 61 -60 61 -9 0 -26 -7 -38 -16z"/>
<path d="M430 1040 c-13 -13 -20 -33 -20 -58 0 -57 -50 -102 -115 -102 -50 0
-75 -69 -37 -103 41 -37 102 -9 102 47 0 35 25 82 49 96 11 5 33 10 49 10 37
0 82 35 82 64 0 28 -39 66 -68 66 -12 0 -31 -9 -42 -20z"/>
<path d="M582 929 c3 -118 4 -121 31 -145 28 -24 29 -24 264 -24 l236 0 -19
23 c-10 12 -30 34 -43 50 l-25 27 -163 0 c-190 0 -183 -5 -183 114 l0 76 -51
0 -51 0 4 -121z"/>
<path d="M710 1000 l0 -50 121 0 120 0 -42 50 -42 50 -79 0 -78 0 0 -50z"/>
<path d="M930 1043 c0 -5 17 -27 38 -51 l37 -43 290 3 290 3 -44 48 -44 47
-283 0 c-156 0 -284 -3 -284 -7z"/>
<path d="M425 856 c-42 -64 41 -130 95 -76 41 41 13 100 -48 100 -22 0 -36 -7
-47 -24z"/>
<path d="M1101 843 c7 -10 26 -33 43 -50 l30 -33 223 0 c210 0 223 1 233 19 5
11 10 33 10 50 l0 31 -276 0 c-262 0 -276 -1 -263 -17z"/>
<path d="M70 665 l0 -35 60 0 c33 0 60 3 60 8 0 4 -25 5 -55 4 -54 -4 -55 -3
-55 23 0 26 1 27 55 23 30 -1 55 0 55 5 0 4 -27 7 -60 7 l-60 0 0 -35z"/>
<path d="M211 663 c1 -21 3 -30 6 -20 6 23 103 25 103 2 0 -8 5 -15 11 -15 6
0 9 14 7 33 -3 32 -3 32 -65 35 l-63 3 1 -38z m109 17 c0 -5 -23 -10 -51 -10
-31 0 -48 4 -44 10 3 6 26 10 51 10 24 0 44 -4 44 -10z"/>
<path d="M357 693 c-11 -10 -8 -63 3 -63 6 0 10 7 10 15 0 12 13 15 55 15 48
0 55 2 55 20 0 18 -7 20 -58 20 -32 0 -62 -3 -65 -7z m103 -13 c0 -5 -20 -10
-45 -10 -25 0 -45 5 -45 10 0 6 20 10 45 10 25 0 45 -4 45 -10z"/>
<path d="M500 680 c0 -18 7 -20 55 -20 73 0 71 -18 -2 -23 l-58 -3 63 -2 c56
-2 62 0 62 18 0 18 -7 20 -55 20 -73 0 -71 18 3 23 l57 3 -62 2 c-57 2 -63 0
-63 -18z"/>
<path d="M640 665 l0 -35 68 2 67 2 -57 3 c-32 2 -58 8 -58 13 0 6 26 11 58
12 l57 1 -65 7 c-71 6 -64 17 15 23 43 3 41 4 -17 5 l-68 2 0 -35z"/>
<path d="M791 665 c0 -32 2 -36 10 -22 13 22 77 24 85 2 10 -26 19 -16 19 20
0 36 -9 46 -19 20 -8 -22 -72 -20 -85 3 -8 13 -10 9 -10 -23z"/>
<path d="M928 670 c-3 -17 -1 -33 4 -36 4 -3 8 2 8 10 0 13 12 16 55 16 48 0
55 2 55 20 0 18 -7 20 -59 20 -58 0 -59 0 -63 -30z m107 10 c4 -6 -13 -10 -44
-10 -28 0 -51 5 -51 10 0 6 20 10 44 10 25 0 48 -4 51 -10z"/>
<path d="M1071 663 c1 -21 3 -30 6 -20 3 13 15 17 45 17 27 0 45 -6 54 -17 12
-16 13 -14 14 20 l0 37 -60 0 -60 0 1 -37z m109 17 c0 -5 -22 -10 -50 -10 -27
0 -50 5 -50 10 0 6 23 10 50 10 28 0 50 -4 50 -10z"/>
<path d="M1210 665 l0 -35 68 2 67 2 -57 3 c-32 2 -58 8 -58 13 0 5 26 11 58
13 l57 3 -57 2 c-32 1 -58 6 -58 12 0 5 26 11 58 13 l57 3 -67 2 -68 2 0 -35z"/>
<path d="M1360 680 c0 -18 7 -20 57 -20 70 0 61 -17 -12 -23 -48 -3 -48 -3 13
-5 56 -2 62 0 62 18 0 18 -7 20 -55 20 -73 0 -71 18 3 23 l57 3 -62 2 c-57 2
-63 0 -63 -18z"/>
<path d="M1500 680 c0 -18 7 -20 55 -20 73 0 71 -18 -2 -23 l-58 -3 63 -2 c56
-2 62 0 62 18 0 18 -7 20 -57 20 -70 0 -61 17 12 23 48 3 48 3 -12 5 -57 2
-63 0 -63 -18z"/>
</g>
</svg>
